<svg width="30" height="28" viewBox="0 0 30 28" fill="none" xmlns="http://www.w3.org/2000/svg">
<path d="M1 8.36825V13.1213C1 13.8698 1.21913 14.6019 1.63036 15.2273L3.3425 17.8312C3.87692 18.644 4.70035 19.2232 5.64592 19.4515L15.2842 21.7782M1 8.36825L18.9875 11.5866M1 8.36825L9.83174 6.37835C10.2886 6.27543 10.7604 6.25707 11.2238 6.3242L29.0393 8.90465M18.9875 11.5866V18.5598M18.9875 11.5866L29.0393 8.90465M18.9875 18.5598L15.2842 21.7782M18.9875 18.5598L29.0393 15.8778M15.2842 21.7782L25.4336 18.8381C26.0634 18.6556 26.6358 18.3147 27.0962 17.8479L29.0393 15.8778M29.0393 8.90465V15.8778" stroke="#F05050" stroke-linecap="round" stroke-linejoin="round"/>
<path d="M5.24902 12.2725L13.7458 14.0009" stroke="#F05050" stroke-linecap="round" stroke-linejoin="round"/>
<path d="M5.24902 14L13.7458 15.7284" stroke="#F05050" stroke-linecap="round" stroke-linejoin="round"/>
<path d="M5.24902 15.7285L13.7458 17.4569" stroke="#F05050" stroke-linecap="round" stroke-linejoin="round"/>
<path d="M5.24902 17.457L13.7458 19.1854" stroke="#F05050" stroke-linecap="round" stroke-linejoin="round"/>
<path d="M21.3926 12.7045L26.4906 11.4082" stroke="#F05050" stroke-linecap="round" stroke-linejoin="round"/>
<path d="M21.3926 14.433L26.4906 13.1367" stroke="#F05050" stroke-linecap="round" stroke-linejoin="round"/>
</svg>
