<svg width="16" height="12" viewBox="0 0 16 12" fill="none" xmlns="http://www.w3.org/2000/svg">
<rect width="16" height="12" rx="1.26843" fill="white"/>
<mask id="mask0" mask-type="alpha" maskUnits="userSpaceOnUse" x="0" y="0" width="16" height="12">
<rect width="16" height="12" rx="1.26843" fill="white"/>
</mask>
<g mask="url(#mask0)">
<path fill-rule="evenodd" clip-rule="evenodd" d="M16.0022 0H0.00222778V0.8H16.0022V0ZM16.0025 1.59962H0.00250598V2.39962H16.0025V1.59962ZM0.00250598 3.19995H16.0025V3.99995H0.00250598V3.19995ZM16.0025 4.79886H0.00250598V5.59886H16.0025V4.79886ZM0.00250598 6.3999H16.0025V7.1999H0.00250598V6.3999ZM16.0025 7.99952H0.00250598V8.79952H16.0025V7.99952ZM0.00250598 9.59985H16.0025V10.3998H0.00250598V9.59985ZM16.0025 11.1995H0.00250598V11.9995H16.0025V11.1995Z" fill="#D02F44"/>
<rect width="6.85714" height="5.6" fill="#46467F"/>
<g filter="url(#filter0_d)">
<path fill-rule="evenodd" clip-rule="evenodd" d="M3.04868 1.2006C3.04868 1.42151 2.87812 1.6006 2.66773 1.6006C2.45734 1.6006 2.28678 1.42151 2.28678 1.2006C2.28678 0.979684 2.45734 0.800598 2.66773 0.800598C2.87812 0.800598 3.04868 0.979684 3.04868 1.2006ZM1.52382 1.20086C1.52382 1.42178 1.35326 1.60086 1.14287 1.60086C0.932475 1.60086 0.761917 1.42178 0.761917 1.20086C0.761917 0.97995 0.932475 0.800864 1.14287 0.800864C1.35326 0.800864 1.52382 0.97995 1.52382 1.20086ZM4.19103 1.6006C4.40143 1.6006 4.57198 1.42151 4.57198 1.2006C4.57198 0.979684 4.40143 0.800598 4.19103 0.800598C3.98064 0.800598 3.81008 0.979684 3.81008 1.2006C3.81008 1.42151 3.98064 1.6006 4.19103 1.6006ZM6.09648 1.2006C6.09648 1.42151 5.92592 1.6006 5.71553 1.6006C5.50513 1.6006 5.33458 1.42151 5.33458 1.2006C5.33458 0.979684 5.50513 0.800598 5.71553 0.800598C5.92592 0.800598 6.09648 0.979684 6.09648 1.2006ZM1.90543 2.40073C2.11583 2.40073 2.28638 2.22165 2.28638 2.00073C2.28638 1.77982 2.11583 1.60073 1.90543 1.60073C1.69504 1.60073 1.52448 1.77982 1.52448 2.00073C1.52448 2.22165 1.69504 2.40073 1.90543 2.40073ZM3.80955 2.00073C3.80955 2.22165 3.63899 2.40073 3.42859 2.40073C3.2182 2.40073 3.04764 2.22165 3.04764 2.00073C3.04764 1.77982 3.2182 1.60073 3.42859 1.60073C3.63899 1.60073 3.80955 1.77982 3.80955 2.00073ZM4.95333 2.40073C5.16372 2.40073 5.33428 2.22165 5.33428 2.00073C5.33428 1.77982 5.16372 1.60073 4.95333 1.60073C4.74294 1.60073 4.57238 1.77982 4.57238 2.00073C4.57238 2.22165 4.74294 2.40073 4.95333 2.40073ZM6.09648 2.80093C6.09648 3.02184 5.92592 3.20093 5.71553 3.20093C5.50513 3.20093 5.33458 3.02184 5.33458 2.80093C5.33458 2.58001 5.50513 2.40093 5.71553 2.40093C5.92592 2.40093 6.09648 2.58001 6.09648 2.80093ZM4.19103 3.20093C4.40143 3.20093 4.57198 3.02184 4.57198 2.80093C4.57198 2.58001 4.40143 2.40093 4.19103 2.40093C3.98064 2.40093 3.81008 2.58001 3.81008 2.80093C3.81008 3.02184 3.98064 3.20093 4.19103 3.20093ZM3.04868 2.80093C3.04868 3.02184 2.87812 3.20093 2.66773 3.20093C2.45734 3.20093 2.28678 3.02184 2.28678 2.80093C2.28678 2.58001 2.45734 2.40093 2.66773 2.40093C2.87812 2.40093 3.04868 2.58001 3.04868 2.80093ZM1.14323 3.20093C1.35363 3.20093 1.52419 3.02184 1.52419 2.80093C1.52419 2.58001 1.35363 2.40093 1.14323 2.40093C0.932839 2.40093 0.762281 2.58001 0.762281 2.80093C0.762281 3.02184 0.932839 3.20093 1.14323 3.20093ZM2.28638 3.60106C2.28638 3.82198 2.11583 4.00106 1.90543 4.00106C1.69504 4.00106 1.52448 3.82198 1.52448 3.60106C1.52448 3.38015 1.69504 3.20106 1.90543 3.20106C2.11583 3.20106 2.28638 3.38015 2.28638 3.60106ZM3.42859 4.00106C3.63899 4.00106 3.80955 3.82198 3.80955 3.60106C3.80955 3.38015 3.63899 3.20106 3.42859 3.20106C3.2182 3.20106 3.04764 3.38015 3.04764 3.60106C3.04764 3.82198 3.2182 4.00106 3.42859 4.00106ZM5.33428 3.60106C5.33428 3.82198 5.16372 4.00106 4.95333 4.00106C4.74294 4.00106 4.57238 3.82198 4.57238 3.60106C4.57238 3.38015 4.74294 3.20106 4.95333 3.20106C5.16372 3.20106 5.33428 3.38015 5.33428 3.60106ZM5.71553 4.80055C5.92592 4.80055 6.09648 4.62146 6.09648 4.40055C6.09648 4.17963 5.92592 4.00055 5.71553 4.00055C5.50513 4.00055 5.33458 4.17963 5.33458 4.40055C5.33458 4.62146 5.50513 4.80055 5.71553 4.80055ZM4.57198 4.40055C4.57198 4.62146 4.40143 4.80055 4.19103 4.80055C3.98064 4.80055 3.81008 4.62146 3.81008 4.40055C3.81008 4.17963 3.98064 4.00055 4.19103 4.00055C4.40143 4.00055 4.57198 4.17963 4.57198 4.40055ZM2.66773 4.80055C2.87812 4.80055 3.04868 4.62146 3.04868 4.40055C3.04868 4.17963 2.87812 4.00055 2.66773 4.00055C2.45734 4.00055 2.28678 4.17963 2.28678 4.40055C2.28678 4.62146 2.45734 4.80055 2.66773 4.80055ZM1.52419 4.40055C1.52419 4.62146 1.35363 4.80055 1.14323 4.80055C0.932839 4.80055 0.762281 4.62146 0.762281 4.40055C0.762281 4.17963 0.932839 4.00055 1.14323 4.00055C1.35363 4.00055 1.52419 4.17963 1.52419 4.40055Z" fill="url(#paint0_linear)"/>
</g>
</g>
<defs>
<filter id="filter0_d" x="0.761917" y="0.800598" width="5.33456" height="4.63416" filterUnits="userSpaceOnUse" color-interpolation-filters="sRGB">
<feFlood flood-opacity="0" result="BackgroundImageFix"/>
<feColorMatrix in="SourceAlpha" type="matrix" values="0 0 0 0 0 0 0 0 0 0 0 0 0 0 0 0 0 0 127 0"/>
<feOffset dy="0.634215"/>
<feColorMatrix type="matrix" values="0 0 0 0 0 0 0 0 0 0 0 0 0 0 0 0 0 0 0.06 0"/>
<feBlend mode="normal" in2="BackgroundImageFix" result="effect1_dropShadow"/>
<feBlend mode="normal" in="SourceGraphic" in2="effect1_dropShadow" result="shape"/>
</filter>
<linearGradient id="paint0_linear" x1="0.761917" y1="0.800598" x2="0.761917" y2="4.80055" gradientUnits="userSpaceOnUse">
<stop stop-color="white"/>
<stop offset="1" stop-color="#F0F0F0"/>
</linearGradient>
</defs>
</svg>
