<svg width="30" height="30" viewBox="0 0 30 30" fill="none" xmlns="http://www.w3.org/2000/svg">
<path d="M2 8.02649V20.8529C2 21.6397 2.46134 22.3535 3.17877 22.6765L15 28M2 8.02649L15 13.8808M2 8.02649L7.2 5.61589M28 8.02649L15.8412 2.38994C15.3077 2.14262 14.6923 2.14262 14.1588 2.38994L10.7479 3.97118M28 8.02649V20.8529C28 21.6397 27.5387 22.3535 26.8212 22.6765L15 28M28 8.02649L23.6984 9.96094M15 28C15 22.4861 15 19.3947 15 13.8808M15 13.8808L20.0267 11.6171M7.2 5.61589L20.0267 11.6171M7.2 5.61589L10.7479 3.97118M20.0267 11.6171L19.8598 11.5391M10.7479 3.97118L23.6984 9.96094M23.6984 9.96094V13.4303C23.6984 14.2092 23.2277 14.9108 22.5071 15.2062V15.2062C21.2443 15.7239 19.8598 14.7952 19.8598 13.4303V11.5391M23.6984 9.96094L19.8598 11.5391" stroke="#333333" stroke-width="1.8" stroke-linecap="round" stroke-linejoin="round"/>
</svg>
