<svg width="22" height="16" viewBox="0 0 22 16" fill="none" xmlns="http://www.w3.org/2000/svg">
<rect width="22" height="16" rx="2" fill="white"/>
<mask id="mask0" mask-type="alpha" maskUnits="userSpaceOnUse" x="0" y="0" width="22" height="16">
<rect width="22" height="16" rx="2" fill="white"/>
</mask>
<g mask="url(#mask0)">
<rect width="22" height="16" fill="#0A17A7"/>
<path fill-rule="evenodd" clip-rule="evenodd" d="M5.24319 10.6667L-2.17969 15.7645L-1.00805 17.5331L8.38061 11.0852V17.0667H13.6187V11.0852L23.0074 17.5331L24.179 15.7645L16.7561 10.6667H21.9997V5.33334H16.7559L24.1789 0.235411L23.0073 -1.5332L13.6187 4.9146V-1.06666H8.38061V4.91458L-1.00793 -1.5332L-2.17957 0.23541L5.24346 5.33334H-0.00034523V10.6667H5.24319Z" fill="white"/>
<path d="M14.668 5.06615L24.6193 -1.59961" stroke="#DB1F35" stroke-width="0.666667" stroke-linecap="round"/>
<path d="M15.7246 10.9578L24.6455 17.0801" stroke="#DB1F35" stroke-width="0.666667" stroke-linecap="round"/>
<path d="M6.2896 5.04824L-3.01562 -1.33691" stroke="#DB1F35" stroke-width="0.666667" stroke-linecap="round"/>
<path d="M7.29886 10.8842L-3.01562 17.8486" stroke="#DB1F35" stroke-width="0.666667" stroke-linecap="round"/>
<path fill-rule="evenodd" clip-rule="evenodd" d="M0 9.6H9.42857V16H12.5714V9.6H22V6.4H12.5714V0H9.42857V6.4H0V9.6Z" fill="#E6273E"/>
</g>
</svg>
