<svg width="26" height="26" viewBox="0 0 26 26" fill="none" xmlns="http://www.w3.org/2000/svg">
<path d="M21.75 0.5H4.25C3.25544 0.5 2.30161 0.895088 1.59835 1.59835C0.895088 2.30161 0.5 3.25544 0.5 4.25V16.75C0.5 17.7446 0.895088 18.6984 1.59835 19.4017C2.30161 20.1049 3.25544 20.5 4.25 20.5H18.7375L23.3625 25.1375C23.4793 25.2534 23.6178 25.345 23.7701 25.4072C23.9224 25.4694 24.0855 25.501 24.25 25.5C24.414 25.5042 24.5767 25.47 24.725 25.4C24.9533 25.3062 25.1487 25.147 25.2866 24.9423C25.4245 24.7377 25.4988 24.4968 25.5 24.25V4.25C25.5 3.25544 25.1049 2.30161 24.4017 1.59835C23.6984 0.895088 22.7446 0.5 21.75 0.5ZM23 21.2375L20.1375 18.3625C20.0207 18.2467 19.8822 18.155 19.7299 18.0928C19.5776 18.0306 19.4145 17.9991 19.25 18H4.25C3.91848 18 3.60054 17.8683 3.36612 17.6339C3.1317 17.3995 3 17.0815 3 16.75V4.25C3 3.91848 3.1317 3.60054 3.36612 3.36612C3.60054 3.1317 3.91848 3 4.25 3H21.75C22.0815 3 22.3995 3.1317 22.6339 3.36612C22.8683 3.60054 23 3.91848 23 4.25V21.2375Z" fill="#F05050"/>
</svg>
