<svg width="30" height="16" viewBox="0 0 30 16" fill="none" xmlns="http://www.w3.org/2000/svg">
<path d="M17.2666 9.789V12.0424C17.2666 12.7247 17.8197 13.2777 18.5019 13.2777H20.0867C20.769 13.2777 21.322 12.7247 21.322 12.0424V9.78901C21.322 9.10677 20.769 8.55371 20.0867 8.55371H18.5019C17.8197 8.55371 17.2666 9.10677 17.2666 9.789Z" stroke="#F05050" stroke-width="0.8" stroke-linecap="round" stroke-linejoin="round"/>
<path d="M21.3213 9.789V12.0424C21.3213 12.7247 21.8744 13.2777 22.5566 13.2777H25.7636C26.4458 13.2777 26.9989 12.7247 26.9989 12.0424V9.78901C26.9989 9.10677 26.4458 8.55371 25.7636 8.55371H22.5566C21.8743 8.55371 21.3213 9.10677 21.3213 9.789Z" stroke="#F05050" stroke-width="0.8" stroke-linecap="round" stroke-linejoin="round"/>
<path d="M22.1328 4.27729V7.31804C22.1328 8.00028 22.6859 8.55334 23.3681 8.55334H25.764C26.4463 8.55334 26.9993 8.00027 26.9993 7.31804V4.27729C26.9993 3.59505 26.4463 3.04199 25.764 3.04199H23.3681C22.6859 3.04199 22.1328 3.59505 22.1328 4.27729Z" stroke="#F05050" stroke-width="0.8" stroke-linecap="round" stroke-linejoin="round"/>
<path d="M17.2666 5.0644V7.31782C17.2666 8.00005 17.8197 8.55311 18.5019 8.55311H20.8978C21.58 8.55311 22.1331 8.00005 22.1331 7.31782V5.0644C22.1331 4.38216 21.58 3.8291 20.8978 3.8291H18.5019C17.8197 3.8291 17.2666 4.38216 17.2666 5.0644Z" stroke="#F05050" stroke-width="0.8" stroke-linecap="round" stroke-linejoin="round"/>
<path d="M20.9168 6.97852H19.7002" stroke="#F05050" stroke-width="0.8" stroke-linecap="round" stroke-linejoin="round"/>
<path d="M22.9443 10.9157V12.0967" stroke="#F05050" stroke-width="0.8" stroke-linecap="round" stroke-linejoin="round"/>
<path d="M18.8887 10.1276V11.3086" stroke="#F05050" stroke-width="0.8" stroke-linecap="round" stroke-linejoin="round"/>
<path d="M25.7832 6.19107V7.37207" stroke="#F05050" stroke-width="0.8" stroke-linecap="round" stroke-linejoin="round"/>
<path d="M4 3.04199V13.1086" stroke="#F05050" stroke-width="0.8" stroke-linecap="round" stroke-linejoin="round"/>
<path d="M15.457 3.04199V13.1086" stroke="#F05050" stroke-width="0.8" stroke-linecap="round" stroke-linejoin="round"/>
<path d="M9.72852 3.04199V13.1086" stroke="#F05050" stroke-width="0.8" stroke-linecap="round" stroke-linejoin="round"/>
<path d="M5.90918 3.04199V13.1086" stroke="#F05050" stroke-width="0.8" stroke-linecap="round" stroke-linejoin="round"/>
<path d="M11.6387 3.04199V13.1086" stroke="#F05050" stroke-width="0.8" stroke-linecap="round" stroke-linejoin="round"/>
<path d="M7.81836 3.04199V13.1086" stroke="#F05050" stroke-width="0.8" stroke-linecap="round" stroke-linejoin="round"/>
<path d="M13.5469 3.04199V13.1086" stroke="#F05050" stroke-width="0.8" stroke-linecap="round" stroke-linejoin="round"/>
<path d="M1 5.17268V11.1456C1 13.1923 2.65918 14.8515 4.70588 14.8515H25.2941C27.3408 14.8515 29 13.1923 29 11.1456V5.17268C29 3.12598 27.3408 1.4668 25.2941 1.4668H4.70588C2.65918 1.4668 1 3.12597 1 5.17268Z" stroke="#F05050" stroke-linecap="round" stroke-linejoin="round"/>
</svg>
