<svg width="30" height="16" viewBox="0 0 30 16" fill="none" xmlns="http://www.w3.org/2000/svg">
<path fill-rule="evenodd" clip-rule="evenodd" d="M0.63562 0.0196533V15.1177H29.0613V0.0196533H0.63562ZM5.53661 13.1046L5.53661 2.03266L4.53661 2.03266L4.53661 13.1046H5.53661ZM7.98707 2.03266L7.98707 13.1046H6.98707L6.98707 2.03266L7.98707 2.03266ZM10.4375 13.1046L10.4375 2.03266L9.43749 2.03266L9.43749 13.1046H10.4375ZM12.8881 2.03266L12.8881 13.1046H11.8881L11.8881 2.03266L12.8881 2.03266ZM15.3385 13.1046L15.3385 2.03266L14.3385 2.03266L14.3385 13.1046H15.3385ZM17.7891 2.03266L17.7891 13.1046H16.7891L16.7891 2.03266L17.7891 2.03266ZM20.2395 13.1046L20.2395 2.03266L19.2395 2.03266L19.2395 13.1046H20.2395ZM22.69 2.03266L22.6899 13.1046H21.6899L21.69 2.03266L22.69 2.03266ZM25.1405 13.1046L25.1405 2.03266L24.1405 2.03266L24.1405 13.1046H25.1405Z" fill="#F05050"/>
</svg>
