<svg width="30" height="28" viewBox="0 0 30 28" fill="none" xmlns="http://www.w3.org/2000/svg">
<path d="M17.2666 15.789V18.0424C17.2666 18.7247 17.8197 19.2777 18.5019 19.2777H20.0867C20.769 19.2777 21.322 18.7247 21.322 18.0424V15.789C21.322 15.1068 20.769 14.5537 20.0867 14.5537H18.5019C17.8197 14.5537 17.2666 15.1068 17.2666 15.789Z" stroke="#565656" stroke-width="0.8" stroke-linecap="round" stroke-linejoin="round"/>
<path d="M21.3213 15.789V18.0424C21.3213 18.7247 21.8744 19.2777 22.5566 19.2777H25.7636C26.4458 19.2777 26.9989 18.7247 26.9989 18.0424V15.789C26.9989 15.1068 26.4458 14.5537 25.7636 14.5537H22.5566C21.8743 14.5537 21.3213 15.1068 21.3213 15.789Z" stroke="#565656" stroke-width="0.8" stroke-linecap="round" stroke-linejoin="round"/>
<path d="M22.1328 10.2773V13.318C22.1328 14.0003 22.6859 14.5533 23.3681 14.5533H25.764C26.4463 14.5533 26.9993 14.0003 26.9993 13.318V10.2773C26.9993 9.59505 26.4463 9.04199 25.764 9.04199H23.3681C22.6859 9.04199 22.1328 9.59505 22.1328 10.2773Z" stroke="#565656" stroke-width="0.8" stroke-linecap="round" stroke-linejoin="round"/>
<path d="M17.2666 11.0644V13.3178C17.2666 14.0001 17.8197 14.5531 18.5019 14.5531H20.8978C21.58 14.5531 22.1331 14.0001 22.1331 13.3178V11.0644C22.1331 10.3822 21.58 9.8291 20.8978 9.8291H18.5019C17.8197 9.8291 17.2666 10.3822 17.2666 11.0644Z" stroke="#565656" stroke-width="0.8" stroke-linecap="round" stroke-linejoin="round"/>
<path d="M20.9168 12.9785H19.7002" stroke="#565656" stroke-width="0.8" stroke-linecap="round" stroke-linejoin="round"/>
<path d="M22.9443 16.9157V18.0967" stroke="#565656" stroke-width="0.8" stroke-linecap="round" stroke-linejoin="round"/>
<path d="M18.8887 16.1276V17.3086" stroke="#565656" stroke-width="0.8" stroke-linecap="round" stroke-linejoin="round"/>
<path d="M25.7832 12.1911V13.3721" stroke="#565656" stroke-width="0.8" stroke-linecap="round" stroke-linejoin="round"/>
<path d="M4 9.04199V19.1086" stroke="#565656" stroke-width="0.8" stroke-linecap="round" stroke-linejoin="round"/>
<path d="M15.457 9.04199V19.1086" stroke="#565656" stroke-width="0.8" stroke-linecap="round" stroke-linejoin="round"/>
<path d="M9.72852 9.04199V19.1086" stroke="#565656" stroke-width="0.8" stroke-linecap="round" stroke-linejoin="round"/>
<path d="M5.90918 9.04199V19.1086" stroke="#565656" stroke-width="0.8" stroke-linecap="round" stroke-linejoin="round"/>
<path d="M11.6387 9.04199V19.1086" stroke="#565656" stroke-width="0.8" stroke-linecap="round" stroke-linejoin="round"/>
<path d="M7.81836 9.04199V19.1086" stroke="#565656" stroke-width="0.8" stroke-linecap="round" stroke-linejoin="round"/>
<path d="M13.5469 9.04199V19.1086" stroke="#565656" stroke-width="0.8" stroke-linecap="round" stroke-linejoin="round"/>
<path d="M1 11.1727V17.1456C1 19.1923 2.65918 20.8515 4.70588 20.8515H25.2941C27.3408 20.8515 29 19.1923 29 17.1456V11.1727C29 9.12598 27.3408 7.4668 25.2941 7.4668H4.70588C2.65918 7.4668 1 9.12597 1 11.1727Z" stroke="#565656" stroke-linecap="round" stroke-linejoin="round"/>
</svg>
