<svg width="30" height="30" viewBox="0 0 30 30" fill="none" xmlns="http://www.w3.org/2000/svg">
<path d="M3.81875 13.75H6.25C6.91304 13.75 7.54893 14.0134 8.01777 14.4822C8.48661 14.9511 8.75 15.587 8.75 16.25V17.5C8.75 18.163 9.01339 18.7989 9.48223 19.2678C9.95107 19.7366 10.587 20 11.25 20C11.913 20 12.5489 20.2634 13.0178 20.7322C13.4866 21.2011 13.75 21.837 13.75 22.5V26.1812M10 4.91875V6.875C10 7.7038 10.3292 8.49866 10.9153 9.08471C11.5013 9.67076 12.2962 10 13.125 10H13.75C14.413 10 15.0489 10.2634 15.5178 10.7322C15.9866 11.2011 16.25 11.837 16.25 12.5C16.25 13.163 16.5134 13.7989 16.9822 14.2678C17.4511 14.7366 18.087 15 18.75 15C19.413 15 20.0489 14.7366 20.5178 14.2678C20.9866 13.7989 21.25 13.163 21.25 12.5C21.25 11.837 21.5134 11.2011 21.9822 10.7322C22.4511 10.2634 23.087 10 23.75 10H25.08M18.75 25.61V22.5C18.75 21.837 19.0134 21.2011 19.4822 20.7322C19.9511 20.2634 20.587 20 21.25 20H25.08M26.25 15C26.25 16.4774 25.959 17.9403 25.3936 19.3052C24.8283 20.6701 23.9996 21.9103 22.955 22.955C21.9103 23.9996 20.6701 24.8283 19.3052 25.3936C17.9403 25.959 16.4774 26.25 15 26.25C13.5226 26.25 12.0597 25.959 10.6948 25.3936C9.3299 24.8283 8.08971 23.9996 7.04505 22.955C6.00039 21.9103 5.17172 20.6701 4.60636 19.3052C4.04099 17.9403 3.75 16.4774 3.75 15C3.75 12.0163 4.93526 9.15483 7.04505 7.04505C9.15483 4.93526 12.0163 3.75 15 3.75C17.9837 3.75 20.8452 4.93526 22.955 7.04505C25.0647 9.15483 26.25 12.0163 26.25 15Z" stroke="#333333" stroke-width="2.5" stroke-linecap="round" stroke-linejoin="round"/>
</svg>
