<svg width="12" height="13" viewBox="0 0 12 13" fill="none" xmlns="http://www.w3.org/2000/svg">
<path d="M1.42188 4.53154L5.16152 7.02463C5.31729 7.12856 5.50036 7.18403 5.68763 7.18403C5.87489 7.18403 6.05796 7.12856 6.21374 7.02463L9.95338 4.53154M2.36982 9.74524H9.00544C9.25685 9.74524 9.49796 9.64536 9.67573 9.46759C9.85351 9.28981 9.95338 9.0487 9.95338 8.79729V4.05756C9.95338 3.80615 9.85351 3.56504 9.67573 3.38727C9.49796 3.20949 9.25685 3.10962 9.00544 3.10962H2.36982C2.11841 3.10962 1.8773 3.20949 1.69952 3.38727C1.52175 3.56504 1.42188 3.80615 1.42188 4.05756V8.79729C1.42188 9.0487 1.52175 9.28981 1.69952 9.46759C1.8773 9.64536 2.11841 9.74524 2.36982 9.74524Z" stroke="#CACACA" stroke-width="0.947945" stroke-linecap="round" stroke-linejoin="round"/>
</svg>
