<svg width="13" height="13" viewBox="0 0 13 13" fill="none" xmlns="http://www.w3.org/2000/svg">
<path d="M9.12234 8.63465L7.11127 10.6457C7.02332 10.7338 6.91888 10.8036 6.80393 10.8512C6.68897 10.8989 6.56575 10.9234 6.44131 10.9234C6.31687 10.9234 6.19365 10.8989 6.07869 10.8512C5.96374 10.8036 5.8593 10.7338 5.77135 10.6457L3.75981 8.63465C3.22954 8.10435 2.86843 7.42872 2.72214 6.69319C2.57585 5.95766 2.65095 5.19527 2.93794 4.50243C3.22494 3.80958 3.71094 3.2174 4.33449 2.80076C4.95805 2.38412 5.69114 2.16174 6.44107 2.16174C7.19101 2.16174 7.9241 2.38412 8.54765 2.80076C9.17121 3.2174 9.65721 3.80958 9.9442 4.50243C10.2312 5.19527 10.3063 5.95766 10.16 6.69319C10.0137 7.42872 9.65261 8.10435 9.12234 8.63465V8.63465Z" stroke="#CACACA" stroke-width="0.947945" stroke-linecap="round" stroke-linejoin="round"/>
<path d="M7.44653 6.95886C7.71319 6.6922 7.863 6.33053 7.863 5.95341C7.863 5.5763 7.71319 5.21463 7.44653 4.94796C7.17987 4.6813 6.8182 4.53149 6.44108 4.53149C6.06397 4.53149 5.7023 4.6813 5.43563 4.94796C5.16897 5.21463 5.01917 5.5763 5.01917 5.95341C5.01917 6.33053 5.16897 6.6922 5.43563 6.95886C5.7023 7.22552 6.06397 7.37533 6.44108 7.37533C6.8182 7.37533 7.17987 7.22552 7.44653 6.95886Z" stroke="#CACACA" stroke-width="0.947945" stroke-linecap="round" stroke-linejoin="round"/>
</svg>
