<svg width="13" height="13" viewBox="0 0 13 13" fill="none" xmlns="http://www.w3.org/2000/svg">
<path d="M2.67486 2.43927C2.49709 2.61704 2.39722 2.85816 2.39722 3.10957V3.58354C2.39722 7.50993 5.58042 10.6931 9.50681 10.6931H9.98078C10.2322 10.6931 10.4733 10.5933 10.6511 10.4155C10.8289 10.2377 10.9287 9.99659 10.9287 9.74518V8.19103C10.9287 8.09151 10.8974 7.99451 10.8393 7.91378C10.7811 7.83304 10.6989 7.77267 10.6045 7.74123L8.47497 7.03122C8.36674 6.99524 8.24917 6.99949 8.14383 7.0432C8.03849 7.0869 7.95243 7.16713 7.90146 7.26915L7.36587 8.33891C6.20533 7.81454 5.2758 6.88501 4.75144 5.72447L5.82119 5.18888C5.92322 5.13791 6.00344 5.05186 6.04715 4.94652C6.09085 4.84117 6.0951 4.7236 6.05913 4.61538L5.34912 2.48582C5.3177 2.39148 5.2574 2.30941 5.17676 2.25123C5.09612 2.19304 4.99923 2.1617 4.89979 2.16162H3.34516C3.09375 2.16162 2.85264 2.26149 2.67486 2.43927Z" stroke="#CACACA" stroke-width="0.947945" stroke-linecap="round" stroke-linejoin="round"/>
</svg>
