<svg width="24" height="24" viewBox="0 0 24 24" fill="none" xmlns="http://www.w3.org/2000/svg">
<path d="M0.706055 20.2944V6.17676C0.706055 4.5199 2.0492 3.17676 3.70605 3.17676H17.4708C19.1276 3.17676 20.4708 4.5199 20.4708 6.17675V20.2944C20.4708 21.9513 19.1276 23.2944 17.4708 23.2944H3.70605C2.0492 23.2944 0.706055 21.9513 0.706055 20.2944Z" stroke="#F05050" stroke-linecap="round" stroke-linejoin="round"/>
<path d="M3.17676 14.8241H9.5297M17.6473 8.35351V10.0006C17.6473 11.1051 16.7519 12.0006 15.6473 12.0006H5.5297C4.42513 12.0006 3.5297 11.1051 3.5297 10.0006V8.35352C3.5297 7.24895 4.42513 6.35352 5.5297 6.35352H15.6473C16.7519 6.35352 17.6473 7.24894 17.6473 8.35351Z" stroke="#F05050" stroke-linecap="round" stroke-linejoin="round"/>
<path d="M9.5297 17.6465H3.17676" stroke="#F05050" stroke-linecap="round" stroke-linejoin="round"/>
<path d="M3.17676 20.4697H9.5297" stroke="#F05050" stroke-linecap="round" stroke-linejoin="round"/>
<path d="M3.53027 3.17664V2.70605C3.53027 1.60148 4.4257 0.706055 5.53027 0.706055H21.295C22.3996 0.706055 23.295 1.60149 23.295 2.70605V20.9413C23.295 22.0459 22.3996 22.9413 21.295 22.9413H20.4715M17.6479 16.8237V18.4708C17.6479 19.5753 16.7525 20.4708 15.6479 20.4708H14.0009C12.8963 20.4708 12.0009 19.5753 12.0009 18.4708V16.8237C12.0009 15.7191 12.8963 14.8237 14.0009 14.8237H15.6479C16.7525 14.8237 17.6479 15.7191 17.6479 16.8237Z" stroke="#F05050" stroke-linecap="round" stroke-linejoin="round"/>
</svg>
