<svg width="17" height="19" viewBox="0 0 17 19" fill="none" xmlns="http://www.w3.org/2000/svg">
<path d="M13.9329 13.5186L10.0426 17.4081C9.87246 17.5783 9.67043 17.7134 9.44805 17.8056C9.22568 17.8977 8.98731 17.9451 8.74659 17.9451C8.50587 17.9451 8.2675 17.8977 8.04513 17.8056C7.82275 17.7134 7.62072 17.5783 7.45059 17.4081L3.55937 13.5186C2.53359 12.493 1.83504 11.1864 1.55205 9.76386C1.26906 8.34134 1.41434 6.86687 1.96952 5.5269C2.5247 4.18693 3.46484 3.04164 4.67107 2.23586C5.87729 1.43008 7.29542 1 8.74613 1C10.1968 1 11.615 1.43008 12.8212 2.23586C14.0274 3.04164 14.9676 4.18693 15.5228 5.5269C16.0779 6.86687 16.2232 8.34134 15.9402 9.76386C15.6572 11.1864 14.9587 12.493 13.9329 13.5186V13.5186Z" stroke="#F05050" stroke-width="1.3" stroke-linecap="round" stroke-linejoin="round"/>
<path d="M10.6907 10.2776C11.2066 9.76183 11.4964 9.06235 11.4964 8.33301C11.4964 7.60366 11.2066 6.90419 10.6907 6.38846C10.1749 5.87274 9.47525 5.58301 8.74574 5.58301C8.01623 5.58301 7.3166 5.87274 6.80076 6.38846C6.28491 6.90419 5.99512 7.60366 5.99512 8.33301C5.99512 9.06235 6.28491 9.76183 6.80076 10.2776C7.3166 10.7933 8.01623 11.083 8.74574 11.083C9.47525 11.083 10.1749 10.7933 10.6907 10.2776Z" stroke="#F05050" stroke-width="1.3" stroke-linecap="round" stroke-linejoin="round"/>
</svg>
