<svg width="14" height="14" viewBox="0 0 14 14" fill="none" xmlns="http://www.w3.org/2000/svg">
<path d="M13.9634 5.47289C13.8712 5.18329 13.6198 4.97825 13.3235 4.95087L9.28208 4.57605L7.68491 0.756038C7.56698 0.475387 7.29867 0.29425 7.00002 0.29425C6.70137 0.29425 6.43295 0.475387 6.31577 0.756038L4.71859 4.57605L0.676564 4.95087C0.380264 4.9788 0.129359 5.18383 0.0366454 5.47289C-0.0555345 5.76249 0.0295957 6.08013 0.25369 6.28091L3.30866 9.01748L2.4079 13.0703C2.342 13.3683 2.45522 13.6765 2.69726 13.8552C2.82736 13.9518 2.98021 14 3.13359 14C3.2654 14 3.39731 13.9642 3.51513 13.8922L7.00002 11.7635L10.4843 13.8922C10.7399 14.0483 11.0613 14.034 11.3028 13.8552C11.5448 13.6765 11.658 13.3683 11.5921 13.0703L10.6914 9.01748L13.7463 6.28091C13.9703 6.08013 14.0556 5.76314 13.9634 5.47289Z" fill="#F05050"/>
</svg>
