<svg width="20" height="21" viewBox="0 0 20 21" fill="none" xmlns="http://www.w3.org/2000/svg">
<path fill-rule="evenodd" clip-rule="evenodd" d="M9.06307 1.84268L9.72952 0.880065C9.52937 0.868655 9.32764 0.862869 9.12451 0.862869C6.64105 0.862869 4.36735 1.72774 2.61054 3.16175C2.68405 3.22346 2.75116 3.29402 2.81019 3.37271L2.99611 3.62061C3.19847 3.89042 3.28535 4.22956 3.23766 4.56343L3.04031 5.94485C3.01008 6.15644 2.92701 6.357 2.79876 6.528L1.34111 8.47154C1.17602 8.69166 1.08678 8.95938 1.08678 9.23452V10.0097C1.08678 10.2632 1.00457 10.5098 0.85248 10.7126C0.457884 11.2387 0.573598 11.9865 1.10876 12.3688L2.21721 13.1605C2.31082 13.2274 2.41391 13.2799 2.52304 13.3163C2.99429 13.4733 3.31215 13.9143 3.31215 14.4111V15.042C3.31215 15.1254 3.33157 15.2077 3.36888 15.2823C3.50948 15.5635 3.37971 15.9048 3.08782 16.0216L2.41453 16.2909C2.18863 16.3812 2.04051 16.6 2.04051 16.8433C2.04051 17.0278 1.96329 17.1797 1.84692 17.284C3.68154 19.1271 6.26386 20.2746 9.12451 20.2746C14.6913 20.2746 19.204 15.9292 19.204 10.5688C19.204 8.80931 18.7178 7.15922 17.8678 5.73624L17.5967 6.51948C17.5665 6.60657 17.5162 6.68529 17.4498 6.74922L17.3649 6.83096C17.1204 7.06647 16.7272 7.04462 16.5103 6.78346L15.8097 5.94022C15.6987 5.80661 15.534 5.72932 15.3603 5.72932H15.3018C15.1101 5.72932 14.9306 5.82338 14.8215 5.98101L14.5312 6.40028C14.4221 6.55791 14.2425 6.65197 14.0508 6.65197H13.673C13.4993 6.65197 13.3346 6.57468 13.2236 6.44106L12.2138 5.22567C12.153 5.15248 12.0752 5.09525 11.9873 5.05895L9.99256 4.23576C9.92188 4.20659 9.84615 4.19158 9.76968 4.19158H8.6637C8.62662 4.19158 8.58962 4.19511 8.55321 4.20212L7.54927 4.39546C7.24661 4.45375 6.95072 4.2669 6.87326 3.96856L6.75892 3.52814C6.71619 3.36357 6.74728 3.18854 6.84406 3.04874L7.19466 2.54233C7.28167 2.41666 7.41446 2.33009 7.56455 2.30119L8.69319 2.08383C8.84328 2.05492 8.97606 1.96835 9.06307 1.84268ZM15.0299 15.8601L15.2401 14.6458C15.2442 14.622 15.2463 14.5979 15.2463 14.5738C15.2463 14.2014 14.7993 14.0113 14.5311 14.2696L14.1191 14.6662C13.9953 14.7855 13.9646 14.972 14.0439 15.1246C14.1231 15.2772 14.0925 15.4638 13.9686 15.583L13.9276 15.6225C13.7636 15.7805 13.7383 16.0341 13.8679 16.2213L13.8934 16.258C14.0519 16.4869 14.3632 16.5492 14.5975 16.3988L14.7282 16.3148C14.8881 16.2122 14.9975 16.0473 15.0299 15.8601ZM5.62362 6.14649L4.53667 7.24745C4.34787 7.43868 4.21525 7.67811 4.15329 7.93959L4.06413 8.31591C3.96679 8.7267 4.05122 9.15951 4.29581 9.5036L4.57008 9.88944C4.79546 10.2065 5.1376 10.421 5.52118 10.4858L6.48609 10.6487C6.56674 10.6623 6.64839 10.6691 6.73018 10.6691H7.22989C7.48077 10.6691 7.72355 10.7579 7.91526 10.9197L8.04367 11.0281C8.20144 11.1613 8.29246 11.3572 8.29246 11.5637C8.29246 11.7213 8.34561 11.8743 8.44332 11.9981L8.57415 12.1637C8.822 12.4775 8.91277 12.8874 8.82057 13.2765L8.75624 13.548C8.67452 13.8929 8.72048 14.2557 8.88561 14.5693L9.83923 16.3804C9.92873 16.5504 10.0744 16.6841 10.2514 16.7588C10.5022 16.8646 10.7889 16.8409 11.0189 16.6953L11.6729 16.2813C11.8765 16.1524 11.9999 15.9282 11.9999 15.6873C11.9999 15.4046 12.1692 15.1494 12.4296 15.0395L12.4502 15.0308C12.5955 14.9695 12.7173 14.8631 12.7977 14.7274L13.348 13.7984L13.4429 13.6382C13.5973 13.3776 13.6362 13.0644 13.5501 12.7739C13.4273 12.3593 13.5615 11.9114 13.8919 11.6325L14.8407 10.8316C14.9628 10.7286 15.0332 10.577 15.0332 10.4172C15.0332 10.2214 14.9276 10.0407 14.7569 9.94467L14.2445 9.65632C14.0973 9.57352 13.9656 9.46594 13.8551 9.33831L12.8623 8.19193C12.7379 8.04828 12.6428 7.88171 12.5823 7.70158C12.4288 7.24439 12.0591 6.89269 11.5949 6.76207L10.6127 6.48573C10.437 6.43629 10.2499 6.51117 10.1569 6.66823C10.0542 6.84159 9.83924 6.91244 9.6536 6.83409L8.86535 6.50142C8.72241 6.4411 8.6295 6.30103 8.6295 6.14589C8.6295 5.96347 8.50176 5.80596 8.32327 5.7683L7.5597 5.60717C7.37616 5.56844 7.18655 5.56844 7.003 5.60717L6.36436 5.74194C6.08313 5.80128 5.82555 5.94196 5.62362 6.14649Z" fill="#959595"/>
</svg>
