<svg width="28" height="28" viewBox="0 0 28 28" fill="none" xmlns="http://www.w3.org/2000/svg">
<path d="M25.0865 18.5922C25.6896 17.1363 26 15.5759 26 14C26 10.8174 24.7357 7.76515 22.4853 5.51472C20.2348 3.26428 17.1826 2 14 2C10.8174 2 7.76515 3.26428 5.51472 5.51472C3.26428 7.76515 2 10.8174 2 14C2 15.5759 2.31039 17.1363 2.91345 18.5922C3.5165 20.0481 4.40041 21.371 5.51472 22.4853C6.62902 23.5996 7.95189 24.4835 9.4078 25.0866C10.8637 25.6896 12.4241 26 14 26C15.5759 26 17.1363 25.6896 18.5922 25.0866C20.0481 24.4835 21.371 23.5996 22.4853 22.4853C23.5996 21.371 24.4835 20.0481 25.0865 18.5922Z" stroke="#565656" stroke-linecap="round" stroke-linejoin="round"/>
<path d="M13.9997 2.32422L12.7107 4.15606C12.4246 4.56261 12.0148 4.86584 11.5423 5.02056L10.5687 5.3394C9.81148 5.58739 9.23588 6.20871 9.04637 6.98268L8.85202 7.77646C8.82466 7.88821 8.8203 8.00436 8.83922 8.11786V8.11786C8.93269 8.67869 9.54037 8.99084 10.0507 8.74015L10.3241 8.60587L12.27 7.9686" stroke="#565656" stroke-linecap="round" stroke-linejoin="round"/>
<path d="M14.0661 8.37793L15.0892 8.62683C15.2493 8.66579 15.4049 8.7218 15.5531 8.79392L16.1071 9.06349C16.4274 9.21934 16.7073 9.44729 16.9248 9.72944L17.5422 10.5305L18.3602 11.8295C18.6322 12.2614 19.1301 12.4962 19.6364 12.4312V12.4312C19.918 12.3951 20.1802 12.2685 20.3837 12.0705L20.8874 11.5803C20.9711 11.4989 21.0183 11.3872 21.0183 11.2704V11.2704C21.0183 11.0316 21.2119 10.838 21.4507 10.838H21.8031C22.0973 10.838 22.3668 11.0025 22.5013 11.2642L22.9143 12.068L23.2577 12.9033C23.3959 13.2395 23.83 13.3295 24.0905 13.0761V13.0761C24.1482 13.0198 24.192 12.9508 24.2181 12.8745L24.4131 12.3052C24.4671 12.1476 24.5381 11.9962 24.6247 11.8538L25.2428 10.838M17.2262 19.4482L16.7058 20.4609C16.6333 20.602 16.5171 20.7157 16.3745 20.7851V20.7851C16.1222 20.9078 15.9621 21.1638 15.9621 21.4443V21.4947C15.9621 21.7546 15.838 21.9988 15.6281 22.152L15.0536 22.5713C14.8349 22.731 14.5458 22.7567 14.3023 22.6382V22.6382C14.1496 22.5639 14.0275 22.4388 13.9569 22.2843L13.0854 20.3762C12.9013 19.973 12.8501 19.5217 12.9394 19.0875L12.9879 18.8517C13.0711 18.4468 12.9861 18.0256 12.7525 17.6846L12.6331 17.5103C12.5373 17.3705 12.486 17.2049 12.486 17.0354V17.0354C12.486 16.8086 12.3943 16.5914 12.2318 16.4332L12.1639 16.3672C11.9652 16.1738 11.6989 16.0656 11.4216 16.0656H11.0878C10.9669 16.0656 10.8462 16.054 10.7275 16.0309L10.2566 15.9392C9.66341 15.8238 9.14552 15.4655 8.82833 14.9511V14.9511C8.53903 14.4818 8.43972 13.9199 8.5507 13.38L8.57403 13.2665C8.65268 12.8838 8.82725 12.5274 9.08137 12.2306L9.79163 11.4012C10.1052 11.035 10.526 10.7767 10.9945 10.6627L11.2392 10.6032C11.4356 10.5554 11.6405 10.5554 11.8368 10.6032L12.4693 10.757C12.6646 10.8045 12.802 10.9795 12.802 11.1804V11.1804C12.802 11.3472 12.8972 11.4993 13.0471 11.5723L13.7335 11.9062C13.9183 11.9961 14.1412 11.9219 14.2351 11.739V11.739C14.3198 11.5741 14.5116 11.495 14.688 11.5522L15.5509 11.8321C16.0058 11.9797 16.3582 12.3429 16.492 12.8021L16.5132 12.8748C16.5667 13.0586 16.6531 13.2312 16.768 13.3843L17.6911 14.6132C17.8016 14.7603 17.9372 14.8868 18.0915 14.987L18.5159 15.2623C18.6969 15.3797 18.8062 15.5809 18.8062 15.7967V15.7967C18.8062 15.9686 18.7367 16.1333 18.6134 16.2532L17.7759 17.0682C17.4359 17.399 17.299 17.8866 17.417 18.3462V18.3462C17.4977 18.6599 17.4604 18.9923 17.3124 19.2804L17.2262 19.4482Z" stroke="#565656" stroke-linecap="round" stroke-linejoin="round"/>
<path d="M20.2509 20.4646L20.4813 19.0825C20.4854 19.0574 20.4875 19.032 20.4875 19.0065C20.4875 18.5951 19.9901 18.389 19.6992 18.68L19.274 19.1051C19.1379 19.2412 19.1042 19.4492 19.1902 19.6213C19.2763 19.7935 19.2426 20.0014 19.1065 20.1375L19.0646 20.1794C18.8862 20.3578 18.8586 20.6373 18.9985 20.8472L19.0176 20.8758C19.1925 21.1383 19.5472 21.2092 19.8096 21.0342L19.9378 20.9488C20.1046 20.8376 20.218 20.6623 20.2509 20.4646Z" stroke="#565656" stroke-linecap="round" stroke-linejoin="round"/>
<path d="M5.78368 22.6482L6.53157 20.9511C6.60806 20.7775 6.73108 20.6285 6.88702 20.5205L6.9722 20.4616C7.29366 20.239 7.43172 19.8324 7.31223 19.4601V19.4601C7.25558 19.2837 7.25558 19.0939 7.31223 18.9174L7.41102 18.6096C7.47761 18.4022 7.47761 18.1791 7.41102 17.9717V17.9717C7.29613 17.6137 6.99762 17.3453 6.62956 17.2688L6.23699 17.1873C5.94 17.1256 5.66442 16.987 5.43785 16.7853L4.6322 16.0682C4.08705 15.5829 3.34439 15.3844 2.6298 15.5328L2.32422 15.5963" stroke="#565656" stroke-linecap="round" stroke-linejoin="round"/>
<path d="M2.32422 13.1352L2.96215 13.9857C3.16643 14.2581 3.51034 14.387 3.84331 14.316L3.94735 14.2938C4.44407 14.1878 4.71278 13.647 4.49721 13.1871V13.1871C4.36011 12.8946 4.41511 12.5481 4.63603 12.3125L5.05855 11.8618C5.18084 11.7313 5.2818 11.5824 5.35769 11.4205L6.38507 9.22877C6.488 9.00918 6.62493 8.8072 6.7908 8.63027L7.11464 8.28483C7.37083 8.01156 7.51341 7.65103 7.51341 7.27645V7.27645C7.51341 6.98014 7.42412 6.6907 7.2572 6.44588L6.21611 4.91895" stroke="#565656" stroke-linecap="round" stroke-linejoin="round"/>
</svg>
