<svg width="26" height="24" viewBox="0 0 26 24" fill="none" xmlns="http://www.w3.org/2000/svg">
<path d="M4.63642 12.2853H1C1 11.7838 1 10.3292 1 8.52355V1H9.72741V9.18209" stroke="#F05050" stroke-linecap="round" stroke-linejoin="round"/>
<path d="M13.3643 4.00942V1H25.0008V4.00942M13.3643 4.00942H25.0008M13.3643 4.00942V9.27591M25.0008 4.00942V19.0565H18.4552M19.9098 7.01884H22.8189M15.5461 6.26649V8.52355H17.728V6.26649H15.5461Z" stroke="#F05050" stroke-linecap="round" stroke-linejoin="round"/>
<path d="M19.9102 10.0283H22.8193" stroke="#F05050" stroke-linecap="round" stroke-linejoin="round"/>
<path d="M19.9102 13.0381H22.092" stroke="#F05050" stroke-linecap="round" stroke-linejoin="round"/>
<path d="M7.5648 12.0595C8.42454 11.3512 9.46012 10.9085 10.5524 10.7822V17.4529H17.0008C16.8787 18.5828 16.4507 19.6541 15.7661 20.5435C15.0814 21.4329 14.1679 22.1042 13.1307 22.4802C12.0935 22.8562 10.9747 22.9216 9.90317 22.6688C8.83162 22.4161 7.85083 21.8555 7.07368 21.0516C6.29653 20.2476 5.75461 19.233 5.51029 18.1245C5.26597 17.016 5.32918 15.8587 5.69265 14.7857C6.05611 13.7128 6.70506 12.7678 7.5648 12.0595Z" stroke="#F05050" stroke-linecap="round" stroke-linejoin="round"/>
<path d="M13.1445 14.769H16.703C16.4119 13.9203 15.9414 13.1494 15.3258 12.5125C14.7102 11.8757 13.965 11.389 13.1445 11.0879V14.769Z" stroke="#F05050" stroke-linecap="round" stroke-linejoin="round"/>
</svg>
