<svg width="24" height="24" viewBox="0 0 24 24" fill="none" xmlns="http://www.w3.org/2000/svg">
<path fill-rule="evenodd" clip-rule="evenodd" d="M11.4949 5.20921C11.7739 4.93026 12.2261 4.93026 12.5051 5.20921L16.7908 9.49492C17.0697 9.77387 17.0697 10.2261 16.7908 10.5051C16.5118 10.784 16.0596 10.784 15.7806 10.5051L12 6.72444L8.21936 10.5051C7.94042 10.784 7.48816 10.784 7.20921 10.5051C6.93026 10.2261 6.93026 9.77387 7.20921 9.49492L11.4949 5.20921Z" fill="#739AFF"/>
<path fill-rule="evenodd" clip-rule="evenodd" d="M12.5051 18.505C12.2261 18.784 11.7739 18.784 11.4949 18.505L7.20921 14.2193C6.93026 13.9404 6.93026 13.4881 7.20921 13.2092C7.48816 12.9302 7.94042 12.9302 8.21936 13.2092L12 16.9898L15.7806 13.2092C16.0596 12.9302 16.5118 12.9302 16.7908 13.2092C17.0697 13.4881 17.0697 13.9404 16.7908 14.2193L12.5051 18.505Z" fill="#739AFF"/>
</svg>
