<svg width="20" height="21" viewBox="0 0 20 21" fill="none" xmlns="http://www.w3.org/2000/svg">
<path fill-rule="evenodd" clip-rule="evenodd" d="M9.57975 4.81008C9.81221 4.57763 10.1891 4.57763 10.4215 4.81008L13.993 8.38151C14.2254 8.61397 14.2254 8.99085 13.993 9.22331C13.7605 9.45576 13.3836 9.45576 13.1512 9.22331L10.0007 6.07277L6.85012 9.22331C6.61766 9.45576 6.24078 9.45576 6.00833 9.22331C5.77587 8.99085 5.77587 8.61397 6.00833 8.38151L9.57975 4.81008Z" fill="#959595"/>
<path fill-rule="evenodd" clip-rule="evenodd" d="M10.4202 15.8901C10.1878 16.1226 9.81091 16.1226 9.57845 15.8901L6.00702 12.3187C5.77457 12.0862 5.77457 11.7093 6.00702 11.4769C6.23948 11.2444 6.61636 11.2444 6.84882 11.4769L9.99935 14.6274L13.1499 11.4769C13.3823 11.2444 13.7592 11.2444 13.9917 11.4769C14.2241 11.7093 14.2241 12.0862 13.9917 12.3187L10.4202 15.8901Z" fill="#959595"/>
</svg>
