<svg width="63" height="54" viewBox="0 0 63 54" fill="none" xmlns="http://www.w3.org/2000/svg">
<path d="M16.4164 5.56317L15.5836 7.43683C14.6206 9.6036 12.4719 11 10.1008 11H8C4.68629 11 2 13.6863 2 17V45.5C2 48.8137 4.68629 51.5 8 51.5H55C58.3137 51.5 61 48.8137 61 45.5V17C61 13.6863 58.3137 11 55 11H51.2082C48.9356 11 46.858 9.71599 45.8416 7.68328L44.6584 5.31672C43.642 3.28401 41.5644 2 39.2918 2H21.8992C19.5281 2 17.3794 3.3964 16.4164 5.56317Z" fill="#FF9494" stroke="white" stroke-width="4" stroke-linecap="round" stroke-linejoin="round"/>
<path d="M20 28.5C20 34.8513 25.1487 40 31.5 40C37.8513 40 43 34.8513 43 28.5C43 22.1487 37.8513 17 31.5 17C25.1487 17 20 22.1487 20 28.5Z" fill="#FF9494" stroke="white" stroke-width="4" stroke-linecap="round" stroke-linejoin="round"/>
</svg>
