<svg width="12" height="12" viewBox="0 0 12 12" fill="none" xmlns="http://www.w3.org/2000/svg">
<path d="M6 12C9.3145 12 12 9.3145 12 6C12 2.6855 9.3145 0 6 0C2.6855 0 0 2.6855 0 6C0 9.3145 2.6855 12 6 12ZM2.7455 5.87L8.5305 3.6395C8.799 3.5425 9.0335 3.705 8.9465 4.111L8.947 4.1105L7.962 8.751C7.889 9.08 7.6935 9.16 7.42 9.005L5.92 7.8995L5.1965 8.5965C5.1165 8.6765 5.049 8.744 4.894 8.744L5.0005 7.2175L7.7805 4.706C7.9015 4.5995 7.7535 4.5395 7.594 4.6455L4.1585 6.8085L2.6775 6.3465C2.356 6.2445 2.349 6.025 2.7455 5.87Z" fill="#959595"/>
</svg>
