<svg width="29" height="28" viewBox="0 0 29 28" fill="none" xmlns="http://www.w3.org/2000/svg">
<path d="M6.32812 8.00709V4.64751C6.32812 3.36925 7.36436 2.33301 8.64263 2.33301H8.8391C10.1174 2.33301 11.1536 3.36925 11.1536 4.64751V8.00709" stroke="#F05050" stroke-linecap="round" stroke-linejoin="round"/>
<path d="M3 11.086V18.8461V22.5727C3 24.277 4.38165 25.6587 6.08601 25.6587H8.57235H11.1734C12.8778 25.6587 14.2595 24.277 14.2595 22.5727V20.1588V11.086C14.2595 9.38165 12.8778 8 11.1734 8H6.08601C4.38165 8 3 9.38165 3 11.086Z" stroke="#F05050" stroke-linecap="round" stroke-linejoin="round"/>
<path d="M5 10V23.9444" stroke="#F05050" stroke-width="0.8" stroke-linecap="round" stroke-linejoin="round"/>
<path d="M6.45605 10V23.9444" stroke="#F05050" stroke-width="0.8" stroke-linecap="round" stroke-linejoin="round"/>
<path d="M7.91309 10V23.9444" stroke="#F05050" stroke-width="0.8" stroke-linecap="round" stroke-linejoin="round"/>
<path d="M9.36816 10V24" stroke="#F05050" stroke-width="0.8" stroke-linecap="round" stroke-linejoin="round"/>
<path d="M10.8223 10V23.9444" stroke="#F05050" stroke-width="0.8" stroke-linecap="round" stroke-linejoin="round"/>
<path d="M12.2803 10V23.9444" stroke="#F05050" stroke-width="0.8" stroke-linecap="round" stroke-linejoin="round"/>
<path d="M20 12V9.5C20 8.67157 20.6716 8 21.5 8V8C22.3284 8 23 8.67157 23 9.5V12" stroke="#F05050" stroke-linecap="round" stroke-linejoin="round"/>
<path d="M17 14.3599V20.2941V23.1439C17 24.4472 18.0566 25.5038 19.3599 25.5038H21.2612H23.2503C24.5536 25.5038 25.6102 24.4472 25.6102 23.1439V21.2979V14.3599C25.6102 13.0566 24.5536 12 23.2503 12H19.3599C18.0566 12 17 13.0566 17 14.3599Z" stroke="#F05050" stroke-linecap="round" stroke-linejoin="round"/>
<path d="M19 21.2549H23.772" stroke="#F05050" stroke-width="0.8" stroke-linecap="round" stroke-linejoin="round"/>
<path d="M19 19.8818H23.772" stroke="#F05050" stroke-width="0.8" stroke-linecap="round" stroke-linejoin="round"/>
<path d="M19 24H23.772" stroke="#F05050" stroke-width="0.8" stroke-linecap="round" stroke-linejoin="round"/>
<path d="M19 18.5098H23.772" stroke="#F05050" stroke-width="0.8" stroke-linecap="round" stroke-linejoin="round"/>
<path d="M19 22.627H23.772" stroke="#F05050" stroke-width="0.8" stroke-linecap="round" stroke-linejoin="round"/>
<path d="M19 17.1377H23.791" stroke="#F05050" stroke-width="0.8" stroke-linecap="round" stroke-linejoin="round"/>
<path d="M19 15.7646H23.772" stroke="#F05050" stroke-width="0.8" stroke-linecap="round" stroke-linejoin="round"/>
<path d="M19 14.3926H23.791" stroke="#F05050" stroke-width="0.8" stroke-linecap="round" stroke-linejoin="round"/>
</svg>
