<svg width="26" height="30" viewBox="0 0 26 30" fill="none" xmlns="http://www.w3.org/2000/svg">
<path d="M6.50009 10.2462H3.84104C3.16916 10.2462 2.5248 10.5412 2.0497 11.0663C1.57461 11.5914 1.30771 12.3036 1.30771 13.0462V25.6462C1.30771 26.3888 1.57461 27.101 2.0497 27.6261C2.5248 28.1512 3.16916 28.4462 3.84104 28.4462H21.5744C22.2463 28.4462 22.8906 28.1512 23.3657 27.6261C23.8408 27.101 24.1077 26.3888 24.1077 25.6462V13.0462C24.1077 12.3036 23.8408 11.5914 23.3657 11.0663C22.8906 10.5412 22.2463 10.2462 21.5744 10.2462H18.5001M16.5077 6.04618L12.7077 1.84618M12.7077 1.84618L8.90771 6.04618M12.7077 1.84618V18.3128" stroke="#4378FF" stroke-width="2.2" stroke-linecap="round" stroke-linejoin="round"/>
</svg>
